<?xml version="1.0" encoding="UTF-8"?><svg id="Layer_2" xmlns="http://www.w3.org/2000/svg" xmlns:xlink="http://www.w3.org/1999/xlink" viewBox="0 0 1721.04 498.01"><defs><style>.cls-1{fill:url(#linear-gradient-2);stroke:url(#linear-gradient-3);}.cls-1,.cls-2,.cls-3,.cls-4,.cls-5,.cls-6,.cls-7,.cls-8,.cls-9,.cls-10,.cls-11,.cls-12,.cls-13,.cls-14,.cls-15{stroke-miterlimit:10;}.cls-1,.cls-2,.cls-3,.cls-4,.cls-6,.cls-7,.cls-8,.cls-9,.cls-10,.cls-11,.cls-12,.cls-13,.cls-14{stroke-width:2.79px;}.cls-2{fill:url(#linear-gradient-4);stroke:url(#linear-gradient-5);}.cls-3{fill:url(#linear-gradient-6);stroke:url(#linear-gradient-7);}.cls-4{fill:url(#linear-gradient-8);stroke:url(#linear-gradient-9);}.cls-16{fill:url(#linear-gradient-38);}.cls-16,.cls-17,.cls-18,.cls-19,.cls-20,.cls-21,.cls-22,.cls-23,.cls-24,.cls-25,.cls-26,.cls-27,.cls-28,.cls-29,.cls-30,.cls-31,.cls-32,.cls-33{stroke-width:0px;}.cls-17{fill:url(#linear-gradient-33);}.cls-18{fill:url(#linear-gradient-29);}.cls-19{fill:url(#linear-gradient-32);}.cls-20{fill:url(#linear-gradient-30);}.cls-21{fill:url(#linear-gradient-31);}.cls-22{fill:url(#linear-gradient-36);}.cls-23{fill:url(#linear-gradient-39);}.cls-24{fill:url(#linear-gradient-34);}.cls-25{fill:url(#linear-gradient-37);}.cls-26{fill:url(#linear-gradient-35);}.cls-27{fill:url(#linear-gradient-45);}.cls-28{fill:url(#linear-gradient-46);}.cls-29{fill:url(#linear-gradient-44);}.cls-30{fill:url(#linear-gradient-42);}.cls-31{fill:url(#linear-gradient-43);}.cls-32{fill:url(#linear-gradient-40);}.cls-33{fill:url(#linear-gradient-41);}.cls-5{stroke:url(#linear-gradient);}.cls-5,.cls-15{fill:#101010;stroke-width:16.76px;}.cls-6{fill:url(#linear-gradient-24);stroke:url(#linear-gradient-25);}.cls-7{fill:url(#linear-gradient-26);stroke:url(#linear-gradient-27);}.cls-8{fill:url(#linear-gradient-18);stroke:url(#linear-gradient-19);}.cls-9{fill:url(#linear-gradient-20);stroke:url(#linear-gradient-21);}.cls-10{fill:url(#linear-gradient-22);stroke:url(#linear-gradient-23);}.cls-11{fill:url(#linear-gradient-16);stroke:url(#linear-gradient-17);}.cls-12{fill:url(#linear-gradient-14);stroke:url(#linear-gradient-15);}.cls-13{fill:url(#linear-gradient-12);stroke:url(#linear-gradient-13);}.cls-14{fill:url(#linear-gradient-10);stroke:url(#linear-gradient-11);}.cls-15{stroke:url(#linear-gradient-28);}</style><linearGradient id="linear-gradient" x1="171.83" y1="399.53" x2="1552.01" y2="399.53" gradientUnits="userSpaceOnUse"><stop offset="0" stop-color="#ffcb00"/><stop offset=".5" stop-color="#ffff61"/><stop offset="1" stop-color="#ffca00"/></linearGradient><linearGradient id="linear-gradient-2" x1="276.21" y1="459.63" x2="276.21" y2="337.57" gradientUnits="userSpaceOnUse"><stop offset="0" stop-color="#ffca00"/><stop offset=".5" stop-color="#f3c800"/><stop offset="1" stop-color="#ffc900"/></linearGradient><linearGradient id="linear-gradient-3" x1="276.21" y1="461.03" x2="276.21" y2="336.17" gradientUnits="userSpaceOnUse"><stop offset="0" stop-color="#ffd800"/><stop offset="1" stop-color="#ffff80"/></linearGradient><linearGradient id="linear-gradient-4" x1="379.09" x2="379.09" xlink:href="#linear-gradient-2"/><linearGradient id="linear-gradient-5" x1="379.09" x2="379.09" xlink:href="#linear-gradient-3"/><linearGradient id="linear-gradient-6" x1="475.87" x2="475.87" xlink:href="#linear-gradient-2"/><linearGradient id="linear-gradient-7" x1="475.87" x2="475.87" xlink:href="#linear-gradient-3"/><linearGradient id="linear-gradient-8" x1="572.65" x2="572.65" xlink:href="#linear-gradient-2"/><linearGradient id="linear-gradient-9" x1="572.65" x2="572.65" xlink:href="#linear-gradient-3"/><linearGradient id="linear-gradient-10" x1="675.53" x2="675.53" xlink:href="#linear-gradient-2"/><linearGradient id="linear-gradient-11" x1="675.53" x2="675.53" xlink:href="#linear-gradient-3"/><linearGradient id="linear-gradient-12" x1="778.42" x2="778.42" xlink:href="#linear-gradient-2"/><linearGradient id="linear-gradient-13" x1="778.42" x2="778.42" xlink:href="#linear-gradient-3"/><linearGradient id="linear-gradient-14" x1="916.17" x2="916.17" xlink:href="#linear-gradient-2"/><linearGradient id="linear-gradient-15" x1="916.17" x2="916.17" xlink:href="#linear-gradient-3"/><linearGradient id="linear-gradient-16" x1="1019.05" x2="1019.05" xlink:href="#linear-gradient-2"/><linearGradient id="linear-gradient-17" x1="1019.05" x2="1019.05" xlink:href="#linear-gradient-3"/><linearGradient id="linear-gradient-18" x1="1097.52" x2="1097.52" xlink:href="#linear-gradient-2"/><linearGradient id="linear-gradient-19" x1="1097.52" x2="1097.52" xlink:href="#linear-gradient-3"/><linearGradient id="linear-gradient-20" x1="1175.99" x2="1175.99" xlink:href="#linear-gradient-2"/><linearGradient id="linear-gradient-21" x1="1175.99" x2="1175.99" xlink:href="#linear-gradient-3"/><linearGradient id="linear-gradient-22" x1="1254.46" x2="1254.46" xlink:href="#linear-gradient-2"/><linearGradient id="linear-gradient-23" x1="1254.46" x2="1254.46" xlink:href="#linear-gradient-3"/><linearGradient id="linear-gradient-24" x1="1332.93" x2="1332.93" xlink:href="#linear-gradient-2"/><linearGradient id="linear-gradient-25" x1="1332.93" x2="1332.93" xlink:href="#linear-gradient-3"/><linearGradient id="linear-gradient-26" x1="1441.92" x2="1441.92" xlink:href="#linear-gradient-2"/><linearGradient id="linear-gradient-27" x1="1441.92" x2="1441.92" xlink:href="#linear-gradient-3"/><linearGradient id="linear-gradient-28" x1="0" y1="158.55" x2="1721.04" y2="158.55" gradientUnits="userSpaceOnUse"><stop offset="0" stop-color="#ff1f00"/><stop offset=".5" stop-color="#ffab00"/><stop offset="1" stop-color="#ff1f00"/></linearGradient><linearGradient id="linear-gradient-29" x1="164.37" y1="272.02" x2="164.37" y2="45.08" gradientUnits="userSpaceOnUse"><stop offset="0" stop-color="#ff2d00"/><stop offset=".5" stop-color="#ffb244"/><stop offset="1" stop-color="#ffc432"/></linearGradient><linearGradient id="linear-gradient-30" x1="367.14" x2="367.14" xlink:href="#linear-gradient-29"/><linearGradient id="linear-gradient-31" x1="535.43" x2="535.43" xlink:href="#linear-gradient-29"/><linearGradient id="linear-gradient-32" x1="895" x2="895" xlink:href="#linear-gradient-29"/><linearGradient id="linear-gradient-33" x1="715.22" x2="715.22" xlink:href="#linear-gradient-29"/><linearGradient id="linear-gradient-34" x1="1591.15" x2="1591.15" xlink:href="#linear-gradient-29"/><linearGradient id="linear-gradient-35" x1="1411.37" x2="1411.37" xlink:href="#linear-gradient-29"/><linearGradient id="linear-gradient-36" x1="1063.29" x2="1063.29" xlink:href="#linear-gradient-29"/><linearGradient id="linear-gradient-37" x1="1231.58" x2="1231.58" xlink:href="#linear-gradient-29"/><linearGradient id="linear-gradient-38" x1="164.37" y1="268.03" x2="164.37" y2="49.08" gradientUnits="userSpaceOnUse"><stop offset="0" stop-color="#ff2d00"/><stop offset=".5" stop-color="#ff6e00"/><stop offset="1" stop-color="#ff2d00"/></linearGradient><linearGradient id="linear-gradient-39" x1="367.14" x2="367.14" xlink:href="#linear-gradient-38"/><linearGradient id="linear-gradient-40" x1="535.43" x2="535.43" xlink:href="#linear-gradient-38"/><linearGradient id="linear-gradient-41" x1="715.22" x2="715.22" xlink:href="#linear-gradient-38"/><linearGradient id="linear-gradient-42" x1="895" x2="895" xlink:href="#linear-gradient-38"/><linearGradient id="linear-gradient-43" x1="1063.29" x2="1063.29" xlink:href="#linear-gradient-38"/><linearGradient id="linear-gradient-44" x1="1231.58" x2="1231.58" xlink:href="#linear-gradient-38"/><linearGradient id="linear-gradient-45" x1="1411.37" x2="1411.37" xlink:href="#linear-gradient-38"/><linearGradient id="linear-gradient-46" x1="1591.15" x2="1591.15" xlink:href="#linear-gradient-38"/></defs><g id="Layer_2-2"><path class="cls-5" d="M180.21,309.42h1363.43v155.21c0,13.8-11.2,25-25,25H205.21c-13.8,0-25-11.2-25-25v-155.21h0Z"/><path class="cls-1" d="M233.49,445.66v-108.09h73.24v12.21h12.21v97.65h-12.21v12.21h-59.27c-7.72,0-13.97-6.25-13.97-13.97ZM282.32,435.22v-73.24h-12.21v73.24h12.21Z"/><path class="cls-2" d="M372.99,410.81v24.41h48.83v24.41h-71.48c-7.72,0-13.97-6.25-13.97-13.97v-108.09h85.45v24.41h-48.83v24.41h36.62v24.41h-36.62Z"/><path class="cls-3" d="M439.25,445.66v-108.09h36.62v97.65h36.62v24.41h-59.27c-7.72,0-13.97-6.25-13.97-13.97Z"/><path class="cls-4" d="M529.93,445.66v-108.09h36.62v97.65h12.21v-97.65h36.62v122.06h-71.48c-7.72,0-13.97-6.25-13.97-13.97Z"/><path class="cls-14" d="M632.81,445.66v-47.06h24.41v-12.21h-24.41v-48.83h36.62v36.62h12.21v-36.62h36.62v48.83h-24.41v12.21h24.41v61.03h-36.62v-36.62h-12.21v36.62h-22.65c-7.72,0-13.97-6.25-13.97-13.97Z"/><path class="cls-13" d="M772.31,410.81v24.41h48.83v24.41h-71.48c-7.72,0-13.97-6.25-13.97-13.97v-108.09h85.45v24.41h-48.83v24.41h36.62v24.41h-36.62Z"/><path class="cls-12" d="M910.07,410.81v24.41h48.83v24.41h-71.48c-7.72,0-13.97-6.25-13.97-13.97v-108.09h85.44v24.41h-48.83v24.41h36.62v24.41h-36.62Z"/><path class="cls-11" d="M976.33,445.66v-108.09h73.24v12.21h12.21v97.65h-12.21v12.21h-59.27c-7.72,0-13.97-6.25-13.97-13.97ZM1025.16,435.22v-73.24h-12.21v73.24h12.21Z"/><path class="cls-8" d="M1079.21,445.66v-108.09h36.62v122.06h-22.65c-7.72,0-13.97-6.25-13.97-13.97Z"/><path class="cls-9" d="M1194.3,361.98v97.65h-22.65c-7.72,0-13.97-6.25-13.97-13.97v-83.68h-24.41v-24.41h85.44v24.41h-24.41Z"/><path class="cls-10" d="M1236.15,445.66v-108.09h36.62v122.06h-22.65c-7.72,0-13.97-6.25-13.97-13.97Z"/><path class="cls-6" d="M1290.21,445.66v-108.09h85.44v122.06h-71.48c-7.72,0-13.97-6.25-13.97-13.97ZM1339.04,435.22v-73.24h-12.21v73.24h12.21Z"/><path class="cls-7" d="M1429.71,410.81v48.83h-22.65c-7.72,0-13.97-6.25-13.97-13.97v-108.09h36.62v24.41h12.21v24.41h12.21v-48.83h36.62v122.06h-36.62v-24.41h-12.21v-24.41h-12.21Z"/><rect class="cls-15" x="8.38" y="8.38" width="1704.28" height="300.34" rx="28.29" ry="28.29"/><path class="cls-18" d="M206.16,272.02v-87.58h-14.61v43.79h-54.36v-43.79h-14.61v87.58H45.24V45.08h77.35v43.79h22.99v43.79h37.59v-43.79h22.99v-43.79h77.35v202.99c0,13.21-11.28,23.95-25.15,23.95h-52.2Z"/><path class="cls-20" d="M293.99,272.02V45.08h146.31v51.77h-68.96v123.39h68.96v27.82c0,13.21-11.28,23.95-25.15,23.95h-121.16Z"/><path class="cls-21" d="M450.78,272.02v-51.77h91.95v-35.81h-91.95V45.08h169.3v51.77h-91.95v35.81h91.95v115.41c0,13.21-11.28,23.95-25.15,23.95h-144.15Z"/><path class="cls-19" d="M902.31,272.02v-87.58h-14.61v87.58h-77.35V45.08h169.3v202.99c0,13.21-11.28,23.95-25.15,23.95h-52.2ZM902.31,132.67v-35.81h-14.61v35.81h14.61Z"/><path class="cls-17" d="M676.54,272.02V96.86h-45.98v-51.77h169.3v51.77h-45.98v151.21c0,13.21-11.28,23.95-25.15,23.95h-52.2Z"/><path class="cls-24" d="M1598.45,272.02v-87.58h-14.61v87.58h-77.35V45.08h169.3v95.57h-22.99v13.91h22.99v93.51c0,13.21-11.28,23.95-25.15,23.95h-52.2ZM1598.45,132.67v-35.81h-14.61v35.81h14.61Z"/><path class="cls-26" d="M1326.72,272.02V45.08h169.3v51.77h-91.95v35.81h68.96v51.77h-68.96v35.81h91.95v27.82c0,13.21-11.28,23.95-25.15,23.95h-144.15Z"/><path class="cls-22" d="M990.14,272.02V45.08h146.31v51.77h-68.96v123.39h68.96v27.82c0,13.21-11.28,23.95-25.15,23.95h-121.16Z"/><path class="cls-25" d="M1238.89,272.02v-65.69h-14.61v65.69h-77.35V45.08h77.35v65.69h14.61V45.08h77.35v95.57h-45.98v13.91h45.98v93.51c0,13.21-11.28,23.95-25.15,23.95h-52.2Z"/><path class="cls-16" d="M118.4,180.45v87.58H49.43V49.08h68.96v43.79h22.99v43.79h45.98v-43.79h22.99v-43.79h68.96v199c0,11.02-9.38,19.96-20.95,19.96h-48.01v-87.58h-22.99v43.79h-45.98v-43.79h-22.99Z"/><path class="cls-23" d="M436.11,224.24v23.83c0,11.02-9.38,19.96-20.95,19.96h-116.97V49.08h137.93v43.79h-68.96v131.37h68.96Z"/><path class="cls-32" d="M454.98,180.45V49.08h160.92v43.79h-91.95v43.79h91.95v111.41c0,11.02-9.38,19.96-20.95,19.96h-139.96v-43.79h91.95v-43.79h-91.95Z"/><path class="cls-33" d="M749.7,92.87v155.21c0,11.02-9.38,19.96-20.95,19.96h-48.01V92.87h-45.98v-43.79h160.92v43.79h-45.98Z"/><path class="cls-30" d="M814.54,268.03V49.08h160.92v199c0,11.02-9.38,19.96-20.95,19.96h-48.01v-87.58h-22.99v87.58h-68.96ZM906.5,136.66v-43.79h-22.99v43.79h22.99Z"/><path class="cls-31" d="M1132.26,224.24v23.83c0,11.02-9.38,19.96-20.95,19.96h-116.97V49.08h137.93v43.79h-68.96v131.37h68.96Z"/><path class="cls-29" d="M1151.12,268.03V49.08h68.96v65.69h22.99V49.08h68.96v87.58h-45.98v21.89h45.98v89.52c0,11.02-9.38,19.96-20.95,19.96h-48.01v-65.69h-22.99v65.69h-68.96Z"/><path class="cls-27" d="M1399.87,180.45v43.79h91.95v23.83c0,11.02-9.38,19.96-20.95,19.96h-139.96V49.08h160.92v43.79h-91.95v43.79h68.96v43.79h-68.96Z"/><path class="cls-28" d="M1510.69,268.03V49.08h160.92v87.58h-22.99v21.89h22.99v89.52c0,11.02-9.38,19.96-20.95,19.96h-48.01v-87.58h-22.99v87.58h-68.96ZM1602.65,136.66v-43.79h-22.99v43.79h22.99Z"/></g></svg>