<?xml version="1.0" encoding="UTF-8"?><svg id="Layer_2" xmlns="http://www.w3.org/2000/svg" xmlns:xlink="http://www.w3.org/1999/xlink" viewBox="0 0 848.25 848.25"><defs><style>.cls-1{stroke:url(#linear-gradient-5);}.cls-1,.cls-2,.cls-3{fill:#101010;}.cls-1,.cls-2,.cls-3,.cls-4{stroke-miterlimit:10;stroke-width:10.42px;}.cls-2{stroke:url(#linear-gradient-3);}.cls-3{stroke:url(#linear-gradient-4);}.cls-5{fill:none;}.cls-5,.cls-6,.cls-7,.cls-8,.cls-9,.cls-10,.cls-11{stroke-width:0px;}.cls-6{fill:url(#linear-gradient-11);}.cls-7{fill:url(#linear-gradient-10);}.cls-8{fill:url(#linear-gradient-8);}.cls-9{fill:url(#linear-gradient-9);}.cls-10{fill:url(#linear-gradient-7);}.cls-11{fill:url(#linear-gradient-6);}.cls-4{fill:url(#linear-gradient);stroke:url(#linear-gradient-2);}</style><linearGradient id="linear-gradient" x1="91.81" y1="505.01" x2="756.81" y2="505.01" gradientUnits="userSpaceOnUse"><stop offset="0" stop-color="#d21f00"/><stop offset=".5" stop-color="#ff6300"/><stop offset="1" stop-color="#d21f00"/></linearGradient><linearGradient id="linear-gradient-2" x1="86.6" y1="505.01" x2="762.03" y2="505.01" gradientUnits="userSpaceOnUse"><stop offset="0" stop-color="#ff1f00"/><stop offset=".5" stop-color="#ffab00"/><stop offset="1" stop-color="#ff1f00"/></linearGradient><linearGradient id="linear-gradient-3" x1="86.22" y1="456.81" x2="761.65" y2="456.81" xlink:href="#linear-gradient-2"/><linearGradient id="linear-gradient-4" x1="86.22" y1="404.7" x2="761.65" y2="404.7" xlink:href="#linear-gradient-2"/><linearGradient id="linear-gradient-5" x1="86.43" y1="343.24" x2="761.86" y2="343.24" xlink:href="#linear-gradient-2"/><linearGradient id="linear-gradient-6" x1="248.55" y1="461.64" x2="248.55" y2="224.85" gradientUnits="userSpaceOnUse"><stop offset="0" stop-color="#ff2d00"/><stop offset=".5" stop-color="#ffb244"/><stop offset="1" stop-color="#ffc432"/></linearGradient><linearGradient id="linear-gradient-7" x1="460.13" x2="460.13" xlink:href="#linear-gradient-6"/><linearGradient id="linear-gradient-8" x1="635.73" x2="635.73" xlink:href="#linear-gradient-6"/><linearGradient id="linear-gradient-9" x1="248.55" y1="457.48" x2="248.55" y2="229.01" gradientUnits="userSpaceOnUse"><stop offset="0" stop-color="#ff2d00"/><stop offset=".5" stop-color="#ff6e00"/><stop offset="1" stop-color="#ff2d00"/></linearGradient><linearGradient id="linear-gradient-10" x1="460.13" x2="460.13" xlink:href="#linear-gradient-9"/><linearGradient id="linear-gradient-11" x1="635.73" x2="635.73" xlink:href="#linear-gradient-9"/></defs><g id="Layer_2-2"><rect class="cls-5" width="848.25" height="848.25" rx="80" ry="80"/><rect class="cls-4" x="91.81" y="352.57" width="665" height="304.87" rx="28.29" ry="28.29"/><rect class="cls-2" x="91.44" y="304.38" width="665" height="304.87" rx="28.29" ry="28.29"/><rect class="cls-3" x="91.44" y="252.27" width="665" height="304.87" rx="28.29" ry="28.29"/><rect class="cls-1" x="91.64" y="190.81" width="665" height="304.87" rx="28.29" ry="28.29"/><path class="cls-11" d="M292.15,461.64v-91.39h-15.24v45.69h-56.72v-45.69h-15.24v91.39h-80.71v-236.8h80.71v45.69h23.99v45.69h39.23v-45.69h23.99v-45.69h80.71v211.81c0,13.78-11.77,24.99-26.24,24.99h-54.47Z"/><path class="cls-10" d="M383.79,461.64v-236.8h152.67v54.02h-71.96v128.75h71.96v29.03c0,13.78-11.77,24.99-26.24,24.99h-126.43Z"/><path class="cls-8" d="M547.4,461.64v-54.02h95.95v-37.36h-95.95v-145.41h176.65v54.02h-95.95v37.36h95.95v120.42c0,13.78-11.77,24.99-26.24,24.99h-150.42Z"/><path class="cls-9" d="M200.57,366.09v91.39h-71.96v-228.47h71.96v45.69h23.99v45.69h47.97v-45.69h23.99v-45.69h71.96v207.64c0,11.5-9.79,20.83-21.86,20.83h-50.1v-91.39h-23.99v45.69h-47.97v-45.69h-23.99Z"/><path class="cls-7" d="M532.09,411.79v24.87c0,11.5-9.79,20.83-21.86,20.83h-122.06v-228.47h143.92v45.69h-71.96v137.08h71.96Z"/><path class="cls-6" d="M551.77,366.09v-137.08h167.91v45.69h-95.95v45.69h95.95v116.26c0,11.5-9.79,20.83-21.86,20.83h-146.04v-45.69h95.95v-45.69h-95.95Z"/></g></svg>