<?xml version="1.0" encoding="UTF-8"?><svg id="Layer_2" xmlns="http://www.w3.org/2000/svg" xmlns:xlink="http://www.w3.org/1999/xlink" viewBox="0 0 1721.04 317.11"><defs><style>.cls-1{fill:url(#linear-gradient-11);}.cls-1,.cls-2,.cls-3,.cls-4,.cls-5,.cls-6,.cls-7,.cls-8,.cls-9,.cls-10,.cls-11,.cls-12,.cls-13,.cls-14,.cls-15,.cls-16,.cls-17,.cls-18{stroke-width:0px;}.cls-2{fill:url(#linear-gradient-12);}.cls-3{fill:url(#linear-gradient-13);}.cls-4{fill:url(#linear-gradient-10);}.cls-5{fill:url(#linear-gradient-17);}.cls-6{fill:url(#linear-gradient-16);}.cls-7{fill:url(#linear-gradient-19);}.cls-8{fill:url(#linear-gradient-15);}.cls-9{fill:url(#linear-gradient-18);}.cls-10{fill:url(#linear-gradient-14);}.cls-11{fill:url(#linear-gradient-4);}.cls-12{fill:url(#linear-gradient-2);}.cls-13{fill:url(#linear-gradient-3);}.cls-14{fill:url(#linear-gradient-8);}.cls-15{fill:url(#linear-gradient-9);}.cls-16{fill:url(#linear-gradient-7);}.cls-17{fill:url(#linear-gradient-5);}.cls-18{fill:url(#linear-gradient-6);}.cls-19{fill:#101010;stroke:url(#linear-gradient);stroke-miterlimit:10;stroke-width:16.76px;}</style><linearGradient id="linear-gradient" x1="0" y1="158.55" x2="1721.04" y2="158.55" gradientUnits="userSpaceOnUse"><stop offset="0" stop-color="#ff1f00"/><stop offset=".5" stop-color="#ffab00"/><stop offset="1" stop-color="#ff1f00"/></linearGradient><linearGradient id="linear-gradient-2" x1="164.37" y1="272.02" x2="164.37" y2="45.08" gradientUnits="userSpaceOnUse"><stop offset="0" stop-color="#ff2d00"/><stop offset=".5" stop-color="#ffb244"/><stop offset="1" stop-color="#ffc432"/></linearGradient><linearGradient id="linear-gradient-3" x1="367.14" x2="367.14" xlink:href="#linear-gradient-2"/><linearGradient id="linear-gradient-4" x1="535.43" x2="535.43" xlink:href="#linear-gradient-2"/><linearGradient id="linear-gradient-5" x1="895" x2="895" xlink:href="#linear-gradient-2"/><linearGradient id="linear-gradient-6" x1="715.22" x2="715.22" xlink:href="#linear-gradient-2"/><linearGradient id="linear-gradient-7" x1="1591.15" x2="1591.15" xlink:href="#linear-gradient-2"/><linearGradient id="linear-gradient-8" x1="1411.37" x2="1411.37" xlink:href="#linear-gradient-2"/><linearGradient id="linear-gradient-9" x1="1063.29" x2="1063.29" xlink:href="#linear-gradient-2"/><linearGradient id="linear-gradient-10" x1="1231.58" x2="1231.58" xlink:href="#linear-gradient-2"/><linearGradient id="linear-gradient-11" x1="164.37" y1="268.03" x2="164.37" y2="49.08" gradientUnits="userSpaceOnUse"><stop offset="0" stop-color="#ff2d00"/><stop offset=".5" stop-color="#ff6e00"/><stop offset="1" stop-color="#ff2d00"/></linearGradient><linearGradient id="linear-gradient-12" x1="367.14" x2="367.14" xlink:href="#linear-gradient-11"/><linearGradient id="linear-gradient-13" x1="535.43" x2="535.43" xlink:href="#linear-gradient-11"/><linearGradient id="linear-gradient-14" x1="715.22" x2="715.22" xlink:href="#linear-gradient-11"/><linearGradient id="linear-gradient-15" x1="895" x2="895" xlink:href="#linear-gradient-11"/><linearGradient id="linear-gradient-16" x1="1063.29" x2="1063.29" xlink:href="#linear-gradient-11"/><linearGradient id="linear-gradient-17" x1="1231.58" x2="1231.58" xlink:href="#linear-gradient-11"/><linearGradient id="linear-gradient-18" x1="1411.37" x2="1411.37" xlink:href="#linear-gradient-11"/><linearGradient id="linear-gradient-19" x1="1591.15" x2="1591.15" xlink:href="#linear-gradient-11"/></defs><g id="Layer_2-2"><rect class="cls-19" x="8.38" y="8.38" width="1704.28" height="300.34" rx="28.29" ry="28.29"/><path class="cls-12" d="M206.16,272.02v-87.58h-14.61v43.79h-54.36v-43.79h-14.61v87.58H45.24V45.08h77.35v43.79h22.99v43.79h37.59v-43.79h22.99v-43.79h77.35v202.99c0,13.21-11.28,23.95-25.15,23.95h-52.2Z"/><path class="cls-13" d="M293.99,272.02V45.08h146.31v51.77h-68.96v123.39h68.96v27.82c0,13.21-11.28,23.95-25.15,23.95h-121.16Z"/><path class="cls-11" d="M450.78,272.02v-51.77h91.95v-35.81h-91.95V45.08h169.3v51.77h-91.95v35.81h91.95v115.41c0,13.21-11.28,23.95-25.15,23.95h-144.15Z"/><path class="cls-17" d="M902.31,272.02v-87.58h-14.61v87.58h-77.35V45.08h169.3v202.99c0,13.21-11.28,23.95-25.15,23.95h-52.2ZM902.31,132.67v-35.81h-14.61v35.81h14.61Z"/><path class="cls-18" d="M676.54,272.02V96.86h-45.98v-51.77h169.3v51.77h-45.98v151.21c0,13.21-11.28,23.95-25.15,23.95h-52.2Z"/><path class="cls-16" d="M1598.45,272.02v-87.58h-14.61v87.58h-77.35V45.08h169.3v95.57h-22.99v13.91h22.99v93.51c0,13.21-11.28,23.95-25.15,23.95h-52.2ZM1598.45,132.67v-35.81h-14.61v35.81h14.61Z"/><path class="cls-14" d="M1326.72,272.02V45.08h169.3v51.77h-91.95v35.81h68.96v51.77h-68.96v35.81h91.95v27.82c0,13.21-11.28,23.95-25.15,23.95h-144.15Z"/><path class="cls-15" d="M990.14,272.02V45.08h146.31v51.77h-68.96v123.39h68.96v27.82c0,13.21-11.28,23.95-25.15,23.95h-121.16Z"/><path class="cls-4" d="M1238.89,272.02v-65.69h-14.61v65.69h-77.35V45.08h77.35v65.69h14.61V45.08h77.35v95.57h-45.98v13.91h45.98v93.51c0,13.21-11.28,23.95-25.15,23.95h-52.2Z"/><path class="cls-1" d="M118.4,180.45v87.58H49.43V49.08h68.96v43.79h22.99v43.79h45.98v-43.79h22.99v-43.79h68.96v199c0,11.02-9.38,19.96-20.95,19.96h-48.01v-87.58h-22.99v43.79h-45.98v-43.79h-22.99Z"/><path class="cls-2" d="M436.11,224.24v23.83c0,11.02-9.38,19.96-20.95,19.96h-116.97V49.08h137.93v43.79h-68.96v131.37h68.96Z"/><path class="cls-3" d="M454.98,180.45V49.08h160.92v43.79h-91.95v43.79h91.95v111.41c0,11.02-9.38,19.96-20.95,19.96h-139.96v-43.79h91.95v-43.79h-91.95Z"/><path class="cls-10" d="M749.7,92.87v155.21c0,11.02-9.38,19.96-20.95,19.96h-48.01V92.87h-45.98v-43.79h160.92v43.79h-45.98Z"/><path class="cls-8" d="M814.54,268.03V49.08h160.92v199c0,11.02-9.38,19.96-20.95,19.96h-48.01v-87.58h-22.99v87.58h-68.96ZM906.5,136.66v-43.79h-22.99v43.79h22.99Z"/><path class="cls-6" d="M1132.26,224.24v23.83c0,11.02-9.38,19.96-20.95,19.96h-116.97V49.08h137.93v43.79h-68.96v131.37h68.96Z"/><path class="cls-5" d="M1151.12,268.03V49.08h68.96v65.69h22.99V49.08h68.96v87.58h-45.98v21.89h45.98v89.52c0,11.02-9.38,19.96-20.95,19.96h-48.01v-65.69h-22.99v65.69h-68.96Z"/><path class="cls-9" d="M1399.87,180.45v43.79h91.95v23.83c0,11.02-9.38,19.96-20.95,19.96h-139.96V49.08h160.92v43.79h-91.95v43.79h68.96v43.79h-68.96Z"/><path class="cls-7" d="M1510.69,268.03V49.08h160.92v87.58h-22.99v21.89h22.99v89.52c0,11.02-9.38,19.96-20.95,19.96h-48.01v-87.58h-22.99v87.58h-68.96ZM1602.65,136.66v-43.79h-22.99v43.79h22.99Z"/></g></svg>